<?xml version="1.0" encoding="UTF-8"?>
<svg xmlns="http://www.w3.org/2000/svg" width="256" height="256" viewBox="0 0 256 256" role="img" aria-labelledby="title-13-disco-puente-2-gomez desc-13-disco-puente-2-gomez">
  <title id="title-13-disco-puente-2-gomez">Disco puente 2 Gomez</title>
  <desc id="desc-13-disco-puente-2-gomez">Icono SVG simple de Disco puente 2 Gomez. Familia disco puente con silueta comun y color propio.</desc>
  <defs>
    <linearGradient id="accent-13-disco-puente-2-gomez" x1="48" y1="44" x2="208" y2="212" gradientUnits="userSpaceOnUse">
      <stop offset="0" stop-color="#f6d48b"/>
      <stop offset="0.62" stop-color="#f3c86a"/>
      <stop offset="1" stop-color="#b99956"/>
    </linearGradient>
    <filter id="shadow-13-disco-puente-2-gomez" x="-22%" y="-22%" width="144%" height="144%" color-interpolation-filters="sRGB">
      <feDropShadow dx="0" dy="8" stdDeviation="8" flood-color="#020617" flood-opacity="0.26"/>
    </filter>
    <style>
      .base{fill:#182235}
      .frame{fill:#26344f}
      .dark{fill:#0f172a}
      .stone{fill:#b9aa86}
      .stone-top{fill:#d1c39e}
      .line{stroke:#e7f0ff;stroke-opacity:.24;stroke-linecap:round;stroke-linejoin:round}
      .accent-stroke{stroke:url(#accent-13-disco-puente-2-gomez);stroke-linecap:round;stroke-linejoin:round}
    </style>
  </defs>
  <g filter="url(#shadow-13-disco-puente-2-gomez)">
    
    <ellipse cx="128" cy="219" rx="88" ry="11" fill="#020617" opacity=".2"/>
    <rect class="base" x="40" y="190" width="176" height="17" rx="8.5"/>
    <rect class="frame" x="52" y="84" width="22" height="108" rx="9"/>
    <rect class="frame" x="182" y="84" width="22" height="108" rx="9"/>
    <rect class="base" x="46" y="72" width="164" height="22" rx="10"/>
    <rect x="104" y="92" width="48" height="28" rx="9" fill="url(#accent-13-disco-puente-2-gomez)"/>
    <path class="line" d="M128 120v24" stroke-width="8"/>
    <circle cx="128" cy="148" r="28" fill="#e7f0ff"/>
    <circle cx="128" cy="148" r="18" fill="url(#accent-13-disco-puente-2-gomez)"/>
    <circle cx="128" cy="148" r="6" class="dark"/>
    <rect class="stone" x="58" y="166" width="140" height="24" rx="7"/>
    <path class="stone-top" d="M67 156h122l9 10H58z"/>
  
  </g>
</svg>
